<svg version="1.1" width="380" height="347" viewBox="-1 -1 380 347" xml:space="preserve" xmlns="http://www.w3.org/2000/svg" xmlns:xlink="http://www.w3.org/1999/xlink">
  <g>
    <path id="ID0.516793027985841" fill="none" stroke="#000000" stroke-width="2" d="M 242 83 C 278.970 83 312.470 98.015 336.727 122.273 C 360.985 146.530 376 180.030 376 217 C 376 253.970 360.985 287.470 336.727 311.727 C 312.470 335.985 278.970 351 242 351 C 205.030 351 171.530 335.985 147.273 311.727 C 123.015 287.470 108 253.970 108 217 C 108 180.030 123.015 146.530 147.273 122.273 C 171.530 98.015 205.030 83 242 83 Z " transform="matrix(1, 0, 0, 1, -51.95, -44)"/>
    <path id="ID0.2003799919039011" fill="none" stroke="#000000" stroke-width="2" stroke-linecap="round" d="M 50 183 L 221 183 " transform="matrix(0.9962427616119385, 0, 0, 1, -47.9, -10)"/>
    <path id="ID0.6949728350155056" fill="none" stroke="#000000" stroke-width="2" stroke-linecap="round" d="M 258 184 L 428 184 " transform="matrix(1.0029069185256958, 0, 0, 1, -51.2, -11)"/>
    <path id="ID0.32042284263297915" fill="none" stroke="#000000" stroke-width="2" stroke-linecap="round" d="M 242 160 L 242 10 " transform="matrix(1, 0, 0, 1.0282894372940063, -52.1, -9.05)"/>
    <path id="ID0.44721520645543933" fill="none" stroke="#000000" stroke-width="2" stroke-linecap="round" d="M 243 198 L 243 355 " transform="matrix(1, 0, 0, 0.9827044010162354, -53, -3.95)"/>
    <path id="ID0.516793027985841" fill="none" stroke="#000000" stroke-width="6" d="M 242 83 C 278.970 83 312.470 98.015 336.727 122.273 C 360.985 146.530 376 180.030 376 217 C 376 253.970 360.985 287.470 336.727 311.727 C 312.470 335.985 278.970 351 242 351 C 205.030 351 171.530 335.985 147.273 311.727 C 123.015 287.470 108 253.970 108 217 C 108 180.030 123.015 146.530 147.273 122.273 C 171.530 98.015 205.030 83 242 83 Z " transform="matrix(0.2666666805744171, 0, 0, 0.2666666805744171, 125.45, 115.15)"/>
  </g>
</svg>